<?xml version="1.0" encoding="UTF-8" standalone="no"?>
<!-- Generator: Adobe Illustrator 17.0.1, SVG Export Plug-In . SVG Version: 6.00 Build 0)  -->

<svg
   xmlns:dc="http://purl.org/dc/elements/1.1/"
   xmlns:cc="http://creativecommons.org/ns#"
   xmlns:rdf="http://www.w3.org/1999/02/22-rdf-syntax-ns#"
   xmlns:svg="http://www.w3.org/2000/svg"
   xmlns="http://www.w3.org/2000/svg"
   xmlns:sodipodi="http://sodipodi.sourceforge.net/DTD/sodipodi-0.dtd"
   xmlns:inkscape="http://www.inkscape.org/namespaces/inkscape"
   version="1.1"
   id="Layer_1"
   x="0px"
   y="0px"
   width="64px"
   height="64px"
   viewBox="0 0 64 64"
   style="enable-background:new 0 0 64 64;"
   xml:space="preserve"
   sodipodi:docname="bttns-icon.svg"
   inkscape:version="0.92.4 (5da689c313, 2019-01-14)"><metadata
   id="metadata17"><rdf:RDF><cc:Work
       rdf:about=""><dc:format>image/svg+xml</dc:format><dc:type
         rdf:resource="http://purl.org/dc/dcmitype/StillImage" /><dc:title></dc:title></cc:Work></rdf:RDF></metadata><defs
   id="defs15">
	
	

		
		
		
	
	
	

		
		
	
			
		</defs><sodipodi:namedview
   pagecolor="#ffffff"
   bordercolor="#666666"
   borderopacity="1"
   objecttolerance="10"
   gridtolerance="10"
   guidetolerance="10"
   inkscape:pageopacity="0"
   inkscape:pageshadow="2"
   inkscape:window-width="1448"
   inkscape:window-height="966"
   id="namedview13"
   showgrid="false"
   inkscape:zoom="3.6874999"
   inkscape:cx="0.29709357"
   inkscape:cy="-12.646037"
   inkscape:window-x="0"
   inkscape:window-y="0"
   inkscape:window-maximized="0"
   inkscape:current-layer="Layer_1" />
<g
   id="g930"
   style="opacity:1;fill:#ffffff;stroke-width:0.75559032"
   transform="matrix(1.3234685,0,0,1.3234685,-86.979027,80.700479)"><path
     inkscape:connector-curvature="0"
     id="path3"
     d="m 108.3589,-26.30661 c -0.162,0 -0.327,-0.039 -0.479,-0.123 -0.484,-0.265 -0.662,-0.873 -0.396,-1.357 1.604,-2.929 2.451,-6.251 2.451,-9.609 0,-11.048 -8.987,-20.037 -20.035002,-20.037 -11.048,0 -20.037,8.988 -20.037,20.036 0,3.356 0.848,6.68 2.452,9.609 0.266,0.484 0.088,1.093 -0.396,1.357 -0.486,0.267 -1.092,0.088 -1.357,-0.396 -1.765,-3.224 -2.698,-6.879 -2.698,-10.57 0,-12.151 9.885,-22.037 22.036,-22.037 12.150002,0 22.035002,9.886 22.035002,22.037 0,3.692 -0.933,7.348 -2.697,10.57 -0.183,0.333 -0.525,0.52 -0.879,0.52 z"
     style="opacity:0.6;fill:#ffffff;stroke-width:0.75559032" /><path
     inkscape:connector-curvature="0"
     id="path5"
     d="m 79.131898,-14.16161 c -2.033,0 -3.849,-1.208 -4.627,-3.078 l -3.881,-9.325 c -1.059,-2.545 0.15,-5.478 2.695,-6.537 l 1.335,-0.556 c 0.609,-0.254 1.252,-0.383 1.91,-0.383 2.033,0 3.85,1.208 4.627,3.078 l 3.881,9.324 c 1.06,2.545 -0.149,5.478 -2.695,6.537 l -1.335,0.557 c -0.61,0.254 -1.252,0.383 -1.91,0.383 z m -2.568,-17.879 c -0.393,0 -0.777,0.077 -1.142,0.229 l -1.335,0.556 c -1.527,0.637 -2.253,2.396 -1.617,3.924 l 3.881,9.325 c 0.466,1.121 1.558,1.846 2.78,1.846 0.393,0 0.777,-0.077 1.142,-0.229 l 1.335,-0.557 c 1.528,-0.637 2.253,-2.396 1.617,-3.923 l -3.881,-9.325 c -0.465,-1.122 -1.557,-1.846 -2.78,-1.846 z"
     style="fill:#ffffff;stroke-width:0.75559032" /><path
     inkscape:connector-curvature="0"
     id="path7"
     d="m 100.7389,-14.16161 v 0 c -0.658,0 -1.301002,-0.129 -1.910002,-0.383 l -1.336,-0.557 c -1.229,-0.511 -2.186,-1.474 -2.696,-2.712 -0.51,-1.238 -0.509,-2.597 0.003,-3.826 l 3.88,-9.323 c 0.778,-1.87 2.595002,-3.078 4.627002,-3.078 0.658,0 1.301,0.129 1.911,0.383 l 1.335,0.556 c 2.545,1.06 3.754,3.992 2.694,6.538 l -3.881,9.324 c -0.778,1.87 -2.595,3.078 -4.627,3.078 z m 2.567,-17.879 c -1.223,0 -2.314,0.725 -2.781,1.847 l -3.880002,9.323 c -0.306,0.736 -0.306,1.552 0.001,2.295 0.307,0.744 0.88,1.322 1.615,1.629 l 1.337,0.557 c 0.364,0.151 0.748002,0.229 1.141002,0.229 1.223,0 2.313,-0.725 2.781,-1.847 l 3.881,-9.324 c 0.306,-0.736 0.306,-1.551 -10e-4,-2.295 -0.307,-0.744 -0.881,-1.322 -1.617,-1.629 l -1.335,-0.556 c -0.364,-0.152 -0.748,-0.229 -1.142,-0.229 z"
     style="fill:#ffffff;stroke-width:0.75559032" /></g>
<g
   id="g921"
   transform="matrix(0.71944421,0,0,-0.71944421,-30.389491,96.970986)"
   style="opacity:1;fill:#ffffff;stroke-width:1.38996184"><path
     inkscape:connector-curvature="0"
     style="fill:#ffffff;stroke-width:1.38996184"
     d="m 72.115593,102.80709 c -0.301,0 -0.599,-0.136 -0.796,-0.39401 -0.335,-0.43799 -0.251,-1.066 0.188,-1.40099 l 14.678,-11.201005 v -20.509 c 0,-0.919 0.373,-1.631 1.023,-1.953 0.651,-0.32 1.443,-0.187 2.173,0.371 l 11.891997,9.074 c 0.667,0.509 1.05,1.241 1.05,2.008 0,0.768 -0.382,1.5 -1.048,2.009 l -13.446997,10.262 c -0.024,0.021 -0.05,0.04 -0.076,0.058 l -15.032,11.470995 c -0.181,0.139 -0.394,0.20501 -0.605,0.20501 z m 16.07,-33.484005 v 18.961 l 11.875997,-9.063 c 0.169,-0.129 0.262,-0.278 0.262,-0.418 0,-0.141 -0.094,-0.29 -0.263,-0.419 z"
     id="path839" /><g
     transform="translate(56.135593,58.305085)"
     id="g843"
     style="opacity:0.6;fill:#ffffff;stroke-width:1.38996184">
				<path
   id="path841"
   d="m 31.815,55.131 c -0.259,0 -0.509,-0.057 -0.741,-0.172 C 30.423,54.638 30.05,53.926 30.05,53.007 V 32.494 L 15.372,21.29 c -0.439,-0.335 -0.523,-0.963 -0.188,-1.402 0.336,-0.439 0.964,-0.521 1.402,-0.188 l 28.553,21.795 c 0.667,0.51 1.05,1.242 1.049,2.01 0,0.767 -0.382,1.498 -1.049,2.007 l -11.893,9.076 c -0.469,0.358 -0.965,0.543 -1.431,0.543 z m 0.235,-21.11 v 18.965 l 11.876,-9.063 c 0.169,-0.129 0.262,-0.277 0.262,-0.418 0,-0.141 -0.093,-0.29 -0.263,-0.419 z"
   style="fill:#ffffff;stroke-width:1.38996184"
   inkscape:connector-curvature="0" />
			</g></g></svg>